<svg width="11" height="11" viewBox="0 0 11 11" fill="none" xmlns="http://www.w3.org/2000/svg">
<path d="M10.7789 11.0011C10.8109 11.0067 10.843 11.005 10.8727 10.9961C10.9024 10.9873 10.929 10.9715 10.9505 10.95C10.972 10.9286 10.9877 10.902 10.9966 10.8722C11.0054 10.8425 11.0071 10.8104 11.0016 10.7784L10.1983 6.01591C10.1687 5.84132 9.95207 5.7555 9.83364 5.87392L8.5239 7.18366L1.87801 0.537774C1.7916 0.451362 1.65727 0.444292 1.5795 0.522063L0.518982 1.58258C0.441211 1.66035 0.44828 1.79468 0.534692 1.8811L7.17862 8.52502L5.87241 9.83122C5.75399 9.94965 5.83981 10.1663 6.0144 10.1959L10.7789 11.0011Z" fill="#FF7875"/>
</svg>
