<svg width="11" height="11" viewBox="0 0 11 11" fill="none" xmlns="http://www.w3.org/2000/svg">
<path d="M11.0011 0.222109C11.0067 0.190103 11.005 0.158016 10.9961 0.128279C10.9873 0.0985416 10.9715 0.0719343 10.95 0.0504731C10.9286 0.029012 10.902 0.0132597 10.8722 0.00441086C10.8425 -0.00443796 10.8104 -0.00615114 10.7784 -0.000599394L6.01591 0.802636C5.84132 0.832291 5.7555 1.04891 5.87392 1.16733L7.18366 2.47707L0.537774 9.12296C0.451362 9.20937 0.444292 9.34371 0.522063 9.42148L1.58258 10.482C1.66035 10.5598 1.79468 10.5527 1.8811 10.4663L8.52502 3.82236L9.83122 5.12856C9.94965 5.24699 10.1663 5.16117 10.1959 4.98657L11.0011 0.222109Z" fill="#69C0FF"/>
</svg>
