<svg width="14" height="14" viewBox="0 0 14 14" fill="none" xmlns="http://www.w3.org/2000/svg">
<path d="M12.375 0.751953H11.125C11.0563 0.751953 11 0.808203 11 0.876953V13.127C11 13.1957 11.0563 13.252 11.125 13.252H12.375C12.4438 13.252 12.5 13.1957 12.5 13.127V0.876953C12.5 0.808203 12.4438 0.751953 12.375 0.751953ZM9.25 0.751953H2C1.72344 0.751953 1.5 0.984766 1.5 1.27227V12.7301C1.5 13.0176 1.72344 13.2504 2 13.2504H9.25C9.52656 13.2504 9.75 13.0176 9.75 12.7301V1.27227C9.75 0.984766 9.52656 0.751953 9.25 0.751953ZM5.125 12.127H2.625V9.37695H5.125V12.127ZM5.125 8.37695H2.625V5.62695H5.125V8.37695ZM5.125 4.62695H2.625V1.87695H5.125V4.62695ZM8.625 12.127H6.125V9.37695H8.625V12.127ZM8.625 8.37695H6.125V5.62695H8.625V8.37695ZM8.625 4.62695H6.125V1.87695H8.625V4.62695Z" fill="black" fill-opacity="0.85"/>
</svg>
