<svg width="22" height="24" viewBox="0 0 22 24" fill="none" xmlns="http://www.w3.org/2000/svg">
<path fill-rule="evenodd" clip-rule="evenodd" d="M4.74009 3.97335C3.15002 4.84066 2.42522 5.89797 2.42522 6.85742C2.42522 7.81687 3.15002 8.87418 4.74009 9.74149C6.29774 10.5911 8.50818 11.1431 10.9966 11.1431C13.4851 11.1431 15.6956 10.5911 17.2532 9.74149C18.8433 8.87418 19.5681 7.81687 19.5681 6.85742C19.5681 5.89797 18.8433 4.84066 17.2532 3.97335C15.6956 3.12372 13.4851 2.57171 10.9966 2.57171C8.50818 2.57171 6.29774 3.12372 4.74009 3.97335ZM19.5681 10.2179C19.1262 10.6046 18.6197 10.9488 18.0741 11.2465C16.2193 12.2582 13.7154 12.8574 10.9966 12.8574C8.27787 12.8574 5.77401 12.2582 3.9192 11.2465C3.37359 10.9488 2.8671 10.6046 2.42522 10.2179V12.0003C2.42522 12.9597 3.15002 14.017 4.74009 14.8843C6.29775 15.734 8.50818 16.286 10.9967 16.286C13.4851 16.286 15.6956 15.734 17.2532 14.8843C18.8433 14.017 19.5681 12.9597 19.5681 12.0003V10.2179ZM19.5681 15.3607C19.1262 15.7475 18.6197 16.0917 18.0741 16.3893C16.2193 17.401 13.7154 18.0003 10.9967 18.0003C8.27787 18.0003 5.77402 17.401 3.9192 16.3893C3.37359 16.0917 2.8671 15.7475 2.42522 15.3607V17.1431C2.42522 18.1026 3.15002 19.1599 4.74009 20.0272C6.29775 20.8768 8.50818 21.4288 10.9967 21.4288C13.4851 21.4288 15.6956 20.8768 17.2532 20.0272C18.8433 19.1599 19.5681 18.1026 19.5681 17.1431V15.3607ZM0.710938 6.85742C0.710938 4.97655 2.0968 3.46243 3.9192 2.46839C5.77401 1.45667 8.27787 0.857422 10.9966 0.857422C13.7154 0.857422 16.2193 1.45667 18.0741 2.46839C19.8965 3.46243 21.2824 4.97655 21.2824 6.85742V17.1431C21.2824 19.024 19.8965 20.5381 18.0741 21.5322C16.2193 22.5439 13.7154 23.1431 10.9967 23.1431C8.27787 23.1431 5.77402 22.5439 3.9192 21.5322C2.0968 20.5381 0.710938 19.024 0.710938 17.1431V6.85742Z" fill="black" fill-opacity="0.85"/>
</svg>
