<svg width="14" height="14" viewBox="0 0 14 14" fill="none" xmlns="http://www.w3.org/2000/svg">
<path d="M7 7.65625C7.36244 7.65625 7.65625 7.36244 7.65625 7C7.65625 6.63756 7.36244 6.34375 7 6.34375C6.63756 6.34375 6.34375 6.63756 6.34375 7C6.34375 7.36244 6.63756 7.65625 7 7.65625Z" fill="black" fill-opacity="0.85"/>
<path d="M7 4.15625C7.36244 4.15625 7.65625 3.86244 7.65625 3.5C7.65625 3.13756 7.36244 2.84375 7 2.84375C6.63756 2.84375 6.34375 3.13756 6.34375 3.5C6.34375 3.86244 6.63756 4.15625 7 4.15625Z" fill="black" fill-opacity="0.85"/>
<path d="M7 11.1562C7.36244 11.1562 7.65625 10.8624 7.65625 10.5C7.65625 10.1376 7.36244 9.84375 7 9.84375C6.63756 9.84375 6.34375 10.1376 6.34375 10.5C6.34375 10.8624 6.63756 11.1562 7 11.1562Z" fill="black" fill-opacity="0.85"/>
</svg>
