<svg width="14" height="14" viewBox="0 0 14 14" fill="none" xmlns="http://www.w3.org/2000/svg">
<path d="M5.03125 3.93555C5.39369 3.93555 5.6875 3.64173 5.6875 3.2793C5.6875 2.91686 5.39369 2.62305 5.03125 2.62305C4.66881 2.62305 4.375 2.91686 4.375 3.2793C4.375 3.64173 4.66881 3.93555 5.03125 3.93555Z" fill="black"/>
<path d="M8.96875 3.93555C9.33119 3.93555 9.625 3.64173 9.625 3.2793C9.625 2.91686 9.33119 2.62305 8.96875 2.62305C8.60631 2.62305 8.3125 2.91686 8.3125 3.2793C8.3125 3.64173 8.60631 3.93555 8.96875 3.93555Z" fill="black"/>
<path d="M5.03125 7.6543C5.39369 7.6543 5.6875 7.36048 5.6875 6.99805C5.6875 6.63561 5.39369 6.3418 5.03125 6.3418C4.66881 6.3418 4.375 6.63561 4.375 6.99805C4.375 7.36048 4.66881 7.6543 5.03125 7.6543Z" fill="black"/>
<path d="M8.96875 7.6543C9.33119 7.6543 9.625 7.36048 9.625 6.99805C9.625 6.63561 9.33119 6.3418 8.96875 6.3418C8.60631 6.3418 8.3125 6.63561 8.3125 6.99805C8.3125 7.36048 8.60631 7.6543 8.96875 7.6543Z" fill="black"/>
<path d="M5.03125 11.373C5.39369 11.373 5.6875 11.0792 5.6875 10.7168C5.6875 10.3544 5.39369 10.0605 5.03125 10.0605C4.66881 10.0605 4.375 10.3544 4.375 10.7168C4.375 11.0792 4.66881 11.373 5.03125 11.373Z" fill="black"/>
<path d="M8.96875 11.373C9.33119 11.373 9.625 11.0792 9.625 10.7168C9.625 10.3544 9.33119 10.0605 8.96875 10.0605C8.60631 10.0605 8.3125 10.3544 8.3125 10.7168C8.3125 11.0792 8.60631 11.373 8.96875 11.373Z" fill="black"/>
</svg>
