<svg width="16" height="19" viewBox="0 0 16 19" fill="none" xmlns="http://www.w3.org/2000/svg">
<g clip-path="url(#clip0_2968_6968)">
<path d="M12.3797 5.56777L11.0912 4.2793L4.71563 10.6531L4.44141 12.2176L6.0041 11.9416L12.3797 5.56777Z" fill="#E6F4FF"/>
<path d="M14.4688 15.1953H1.53125C1.22012 15.1953 0.96875 15.4467 0.96875 15.7578V16.3906C0.96875 16.468 1.03203 16.5312 1.10938 16.5312H14.8906C14.968 16.5312 15.0312 16.468 15.0312 16.3906V15.7578C15.0312 15.4467 14.7799 15.1953 14.4688 15.1953ZM3.52988 13.7188C3.56504 13.7188 3.6002 13.7152 3.63535 13.71L6.59199 13.1914C6.62715 13.1844 6.66055 13.1686 6.68516 13.1422L14.1365 5.69082C14.1528 5.67456 14.1657 5.65524 14.1746 5.63398C14.1834 5.61271 14.1879 5.58992 14.1879 5.56689C14.1879 5.54387 14.1834 5.52108 14.1746 5.49981C14.1657 5.47855 14.1528 5.45923 14.1365 5.44297L11.215 2.51973C11.1816 2.48633 11.1377 2.46875 11.0902 2.46875C11.0428 2.46875 10.9988 2.48633 10.9654 2.51973L3.51406 9.97109C3.4877 9.99746 3.47187 10.0291 3.46484 10.0643L2.94629 13.0209C2.92919 13.1151 2.9353 13.212 2.96409 13.3033C2.99288 13.3945 3.04349 13.4774 3.11152 13.5447C3.22754 13.6572 3.37344 13.7188 3.52988 13.7188ZM4.71465 10.6531L11.0902 4.2793L12.3787 5.56777L6.00312 11.9416L4.44043 12.2176L4.71465 10.6531Z" fill="#1677FF"/>
</g>
<defs>
<clipPath id="clip0_2968_6968">
<rect y="0.5" width="16" height="18" rx="2" fill="white"/>
</clipPath>
</defs>
</svg>
