<svg width="14" height="14" viewBox="0 0 14 14" fill="none" xmlns="http://www.w3.org/2000/svg">
<g clip-path="url(#clip0_3349_21656)">
<path d="M3.02656 10.748C3.05781 10.748 3.08906 10.7449 3.12031 10.7402L5.74844 10.2793C5.77969 10.273 5.80938 10.259 5.83125 10.2355L12.4547 3.61211C12.4692 3.59765 12.4807 3.58048 12.4885 3.56158C12.4963 3.54268 12.5004 3.52242 12.5004 3.50195C12.5004 3.48149 12.4963 3.46123 12.4885 3.44232C12.4807 3.42342 12.4692 3.40625 12.4547 3.3918L9.85781 0.793359C9.82813 0.763672 9.78906 0.748047 9.74688 0.748047C9.70469 0.748047 9.66563 0.763672 9.63594 0.793359L3.0125 7.4168C2.98906 7.44024 2.975 7.46836 2.96875 7.49961L2.50781 10.1277C2.49261 10.2114 2.49804 10.2976 2.52364 10.3787C2.54923 10.4599 2.59421 10.5335 2.65469 10.5934C2.75781 10.6934 2.8875 10.748 3.02656 10.748ZM4.07969 8.02305L9.74688 2.35742L10.8922 3.50273L5.225 9.16836L3.83594 9.41367L4.07969 8.02305ZM12.75 12.0605H1.25C0.973438 12.0605 0.75 12.284 0.75 12.5605V13.123C0.75 13.1918 0.80625 13.248 0.875 13.248H13.125C13.1938 13.248 13.25 13.1918 13.25 13.123V12.5605C13.25 12.284 13.0266 12.0605 12.75 12.0605Z" fill="black" fill-opacity="0.85"/>
</g>
<defs>
<clipPath id="clip0_3349_21656">
<rect width="14" height="14" fill="white"/>
</clipPath>
</defs>
</svg>
