<svg width="24" height="24" viewBox="0 0 24 24" fill="none" xmlns="http://www.w3.org/2000/svg">
<path d="M19.8674 6.8705L14.9266 1.92968C14.7888 1.79193 14.6028 1.71387 14.4077 1.71387H4.65462C4.24824 1.71387 3.91992 2.04218 3.91992 2.44856V21.5506C3.91992 21.957 4.24824 22.2853 4.65462 22.2853H19.3485C19.7549 22.2853 20.0832 21.957 20.0832 21.5506V7.39167C20.0832 7.19652 20.0051 7.00826 19.8674 6.8705ZM18.3888 7.72917H14.0679V3.40826L18.3888 7.72917ZM18.4301 20.6322H5.57298V3.36693H12.5067V8.32611C12.5067 8.58186 12.6083 8.82713 12.7891 9.00797C12.9699 9.1888 13.2152 9.2904 13.4709 9.2904H18.4301V20.6322Z" fill="black" fill-opacity="0.85"/>
</svg>
