<svg width="14" height="6" viewBox="0 0 14 6" fill="none" xmlns="http://www.w3.org/2000/svg">
<path d="M13.9148 3.15748C13.9413 3.13877 13.9628 3.11487 13.9776 3.08759C13.9923 3.0603 14 3.03035 14 3C14 2.96965 13.9923 2.9397 13.9776 2.91241C13.9628 2.88513 13.9413 2.86123 13.9148 2.84252L9.97918 0.0428988C9.83476 -0.0595874 9.6209 0.0328995 9.6209 0.200377L9.6209 2.05263L0.222192 2.05263C0.0999863 2.05263 4.59989e-08 2.14262 4.46873e-08 2.2526L2.68024e-08 3.7524C2.54908e-08 3.86238 0.0999862 3.95237 0.222192 3.95237L9.61812 3.95237L9.61812 5.79962C9.61812 5.9671 9.83198 6.05959 9.9764 5.9571L13.9148 3.15748Z" fill="black" fill-opacity="0.45"/>
</svg>
