<svg width="16" height="22" viewBox="0 0 16 22" fill="none" xmlns="http://www.w3.org/2000/svg">
<path d="M7.9998 1C3.98907 1 0.726562 4.218 0.726562 8.174C0.726562 10.792 1.39772 11.783 6.62504 19.493L7.4503 20.71C7.57297 20.891 7.77878 21 7.9998 21C8.22081 21 8.42662 20.891 8.54929 20.71L9.23667 19.695C14.5857 11.804 15.272 10.79 15.272 8.173C15.273 4.218 12.0095 1 7.9998 1Z" fill="#00474F"/>
<path d="M7.68681 20.5497L7.68677 20.5496L6.86153 19.3327C6.86152 19.3327 6.86152 19.3327 6.86151 19.3326C4.24282 15.4702 2.77977 13.3113 1.96762 11.7895C1.56405 11.0333 1.32755 10.4456 1.19038 9.8939C1.05344 9.34316 1.01228 8.81564 1.01228 8.174C1.01228 4.37948 4.14316 1.28571 7.9998 1.28571C11.8555 1.28571 14.9873 4.37953 14.9863 8.17293V8.173C14.9863 8.81396 14.9443 9.34246 14.8042 9.8978C14.6638 10.4543 14.4216 11.0506 14.0084 11.8212C13.1771 13.3716 11.6796 15.5819 9.00017 19.5347L9.0001 19.5348L8.31278 20.5497C8.24365 20.6517 8.12674 20.7143 7.9998 20.7143C7.87286 20.7143 7.75594 20.6517 7.68681 20.5497Z" stroke="white" stroke-opacity="0.5" stroke-width="0.571429"/>
</svg>
