<svg width="14" height="14" viewBox="0 0 14 14" fill="none" xmlns="http://www.w3.org/2000/svg">
<g id="wrapper" clip-path="url(#clip0_8837_5478)">
<g id="Union">
<path fill-rule="evenodd" clip-rule="evenodd" d="M5.6137 3.43869L10.2403 6.79807C10.2722 6.82108 10.2982 6.85136 10.3162 6.88641C10.3341 6.92145 10.3435 6.96026 10.3435 6.99963C10.3435 7.039 10.3341 7.07781 10.3162 7.11285C10.2982 7.1479 10.2722 7.17818 10.2403 7.20119L5.6137 10.5606C5.44964 10.6793 5.21839 10.5637 5.21839 10.359V3.64026C5.21817 3.59425 5.23073 3.54908 5.25466 3.50979C5.2786 3.4705 5.31298 3.43863 5.35397 3.41773C5.39496 3.39684 5.44094 3.38773 5.4868 3.39143C5.53266 3.39513 5.57659 3.41149 5.6137 3.43869ZM6.21526 5.10744V8.89182L8.81995 6.99963L6.21526 5.10744Z" fill="white"/>
<path fill-rule="evenodd" clip-rule="evenodd" d="M0 7C0 3.13437 3.13437 0 7 0C10.8656 0 14 3.13437 14 7C14 10.8656 10.8656 14 7 14C3.13437 14 0 10.8656 0 7ZM1.1875 7C1.1875 10.2094 3.79063 12.8125 7 12.8125C10.2094 12.8125 12.8125 10.2094 12.8125 7C12.8125 3.79063 10.2094 1.1875 7 1.1875C3.79063 1.1875 1.1875 3.79063 1.1875 7Z" fill="white"/>
</g>
</g>
<defs>
<clipPath id="clip0_8837_5478">
<rect width="14" height="14" fill="white"/>
</clipPath>
</defs>
</svg>
