<svg width="14" height="14" viewBox="0 0 14 14" fill="none" xmlns="http://www.w3.org/2000/svg">
<path d="M13.1029 12.8375L12.2748 8.0625H12.5544C12.7794 8.0625 12.9607 7.88125 12.9607 7.65625V4.65625C12.9607 4.43125 12.7794 4.25 12.5544 4.25H8.71069V1.40625C8.71069 1.18125 8.52944 1 8.30444 1H5.80444C5.57944 1 5.39819 1.18125 5.39819 1.40625V4.25H1.55444C1.32944 4.25 1.14819 4.43125 1.14819 4.65625V7.65625C1.14819 7.88125 1.32944 8.0625 1.55444 8.0625H1.83413L1.00601 12.8375C0.995858 12.8958 0.998595 12.9556 1.01402 13.0127C1.02945 13.0699 1.0572 13.1229 1.09532 13.1682C1.13344 13.2135 1.18101 13.2498 1.23468 13.2748C1.28835 13.2997 1.34683 13.3126 1.40601 13.3125H12.7029C12.7263 13.3125 12.7498 13.3109 12.7716 13.3062C12.8242 13.2974 12.8746 13.2782 12.9198 13.2498C12.9649 13.2215 13.0041 13.1844 13.0348 13.1408C13.0656 13.0973 13.0875 13.048 13.0992 12.996C13.1109 12.9439 13.1121 12.89 13.1029 12.8375ZM2.24194 5.34375H6.49194V2.09375H7.61694V5.34375H11.8669V6.96875H2.24194V5.34375ZM9.55444 12.2188V9.78125C9.55444 9.7125 9.49819 9.65625 9.42944 9.65625H8.67944C8.61069 9.65625 8.55444 9.7125 8.55444 9.78125V12.2188H5.55444V9.78125C5.55444 9.7125 5.49819 9.65625 5.42944 9.65625H4.67944C4.61069 9.65625 4.55444 9.7125 4.55444 9.78125V12.2188H2.22319L2.92788 8.15625H11.1794L11.8841 12.2188H9.55444Z" fill="black" fill-opacity="0.85"/>
</svg>
