<svg width="14" height="14" viewBox="0 0 14 14" fill="none" xmlns="http://www.w3.org/2000/svg">
<path d="M10.5625 1.51367C9.59688 1.51367 8.8125 2.29805 8.8125 3.26367C8.8125 4.04648 9.32969 4.71055 10.0391 4.93398V6.43242L4 8.41055V3.96836C4.69063 3.73398 5.1875 3.0793 5.1875 2.31055C5.1875 1.34492 4.40313 0.560547 3.4375 0.560547C2.47188 0.560547 1.6875 1.34492 1.6875 2.31055C1.6875 3.0793 2.18438 3.73242 2.875 3.96836V10.0293C2.18438 10.2637 1.6875 10.9184 1.6875 11.6871C1.6875 12.6527 2.47188 13.4371 3.4375 13.4371C4.40313 13.4371 5.1875 12.6527 5.1875 11.6871C5.1875 10.9184 4.69063 10.2652 4 10.0293V9.59492L10.6172 7.42773C10.7761 7.37607 10.9145 7.27532 11.0125 7.13998C11.1105 7.00464 11.163 6.8417 11.1625 6.67461V4.90742C11.8328 4.66055 12.3125 4.0168 12.3125 3.26367C12.3125 2.29805 11.5281 1.51367 10.5625 1.51367ZM2.6875 2.31055C2.69151 2.11429 2.77228 1.92741 2.9125 1.79003C3.05272 1.65265 3.2412 1.5757 3.4375 1.5757C3.6338 1.5757 3.82228 1.65265 3.9625 1.79003C4.10272 1.92741 4.18349 2.11429 4.1875 2.31055C4.18349 2.50681 4.10272 2.69368 3.9625 2.83106C3.82228 2.96845 3.6338 3.04539 3.4375 3.04539C3.2412 3.04539 3.05272 2.96845 2.9125 2.83106C2.77228 2.69368 2.69151 2.50681 2.6875 2.31055ZM4.1875 11.6855C4.18349 11.8818 4.10272 12.0687 3.9625 12.2061C3.82228 12.3434 3.6338 12.4204 3.4375 12.4204C3.2412 12.4204 3.05272 12.3434 2.9125 12.2061C2.77228 12.0687 2.69151 11.8818 2.6875 11.6855C2.69151 11.4893 2.77228 11.3024 2.9125 11.165C3.05272 11.0276 3.2412 10.9507 3.4375 10.9507C3.6338 10.9507 3.82228 11.0276 3.9625 11.165C4.10272 11.3024 4.18349 11.4893 4.1875 11.6855ZM10.5625 4.01367C10.3662 4.00967 10.1794 3.92889 10.042 3.78867C9.9046 3.64846 9.82765 3.45997 9.82765 3.26367C9.82765 3.06737 9.9046 2.87889 10.042 2.73867C10.1794 2.59846 10.3662 2.51768 10.5625 2.51367C10.7588 2.51768 10.9456 2.59846 11.083 2.73867C11.2204 2.87889 11.2973 3.06737 11.2973 3.26367C11.2973 3.45997 11.2204 3.64846 11.083 3.78867C10.9456 3.92889 10.7588 4.00967 10.5625 4.01367Z" fill="black" fill-opacity="0.85"/>
</svg>
