<svg width="14" height="14" viewBox="0 0 14 14" fill="none" xmlns="http://www.w3.org/2000/svg">
<g clip-path="url(#clip0_3947_58130)">
<rect width="14" height="14" fill="white" fill-opacity="0.01"/>
<path d="M13.125 10.998H0.875C0.80625 10.998 0.75 11.0543 0.75 11.123V12.373C0.75 12.4418 0.80625 12.498 0.875 12.498H13.125C13.1938 12.498 13.25 12.4418 13.25 12.373V11.123C13.25 11.0543 13.1938 10.998 13.125 10.998ZM12.7297 1.49805H1.27031C0.982813 1.49805 0.75 1.72148 0.75 1.99805V9.24805C0.75 9.52461 0.982813 9.74805 1.27031 9.74805H12.7281C13.0156 9.74805 13.2484 9.52461 13.2484 9.24805V1.99805C13.25 1.72148 13.0172 1.49805 12.7297 1.49805ZM4.625 8.62305H1.875V6.12305H4.625V8.62305ZM4.625 5.12305H1.875V2.62305H4.625V5.12305ZM8.375 8.62305H5.625V6.12305H8.375V8.62305ZM8.375 5.12305H5.625V2.62305H8.375V5.12305ZM12.125 8.62305H9.375V6.12305H12.125V8.62305ZM12.125 5.12305H9.375V2.62305H12.125V5.12305Z" fill="black" fill-opacity="0.85"/>
</g>
<defs>
<clipPath id="clip0_3947_58130">
<rect width="14" height="14" fill="white"/>
</clipPath>
</defs>
</svg>
