<svg width="14" height="14" viewBox="0 0 14 14" fill="none" xmlns="http://www.w3.org/2000/svg">
<g clip-path="url(#clip0_3947_29292)">
<path d="M12.9578 3.58477L10.4172 1.04414C10.3 0.926953 10.1563 0.841016 10 0.794141V0.751953H1.25C0.973438 0.751953 0.75 0.975391 0.75 1.25195V12.752C0.75 13.0285 0.973438 13.252 1.25 13.252H12.75C13.0266 13.252 13.25 13.0285 13.25 12.752V4.29102C13.25 4.02539 13.1453 3.77227 12.9578 3.58477ZM5 1.87695H9V3.50195H5V1.87695ZM12.125 12.127H1.875V1.87695H4V4.00195C4 4.27852 4.22344 4.50195 4.5 4.50195H9.5C9.77656 4.50195 10 4.27852 10 4.00195V2.21758L12.125 4.34258V12.127ZM7 5.9082C5.75781 5.9082 4.75 6.91602 4.75 8.1582C4.75 9.40039 5.75781 10.4082 7 10.4082C8.24219 10.4082 9.25 9.40039 9.25 8.1582C9.25 6.91602 8.24219 5.9082 7 5.9082ZM7 9.4082C6.30938 9.4082 5.75 8.84883 5.75 8.1582C5.75 7.46758 6.30938 6.9082 7 6.9082C7.69063 6.9082 8.25 7.46758 8.25 8.1582C8.25 8.84883 7.69063 9.4082 7 9.4082Z" fill="white"/>
</g>
<defs>
<clipPath id="clip0_3947_29292">
<rect width="14" height="14" fill="white"/>
</clipPath>
</defs>
</svg>
