<svg width="15" height="14" viewBox="0 0 15 14" fill="none" xmlns="http://www.w3.org/2000/svg">
<path d="M13.2195 3.7195L10.7805 1.2805C10.668 1.168 10.53 1.0855 10.38 1.0405V1H1.98C1.7145 1 1.5 1.2145 1.5 1.48V12.52C1.5 12.7855 1.7145 13 1.98 13H13.02C13.2855 13 13.5 12.7855 13.5 12.52V4.3975C13.5 4.1425 13.3995 3.8995 13.2195 3.7195ZM5.58 2.08H9.42V3.64H5.58V2.08ZM12.42 11.92H2.58V2.08H4.62V4.12C4.62 4.3855 4.8345 4.6 5.1 4.6H9.9C10.1655 4.6 10.38 4.3855 10.38 4.12V2.407L12.42 4.447V11.92ZM7.5 5.95C6.3075 5.95 5.34 6.9175 5.34 8.11C5.34 9.3025 6.3075 10.27 7.5 10.27C8.6925 10.27 9.66 9.3025 9.66 8.11C9.66 6.9175 8.6925 5.95 7.5 5.95ZM7.5 9.31C6.837 9.31 6.3 8.773 6.3 8.11C6.3 7.447 6.837 6.91 7.5 6.91C8.163 6.91 8.7 7.447 8.7 8.11C8.7 8.773 8.163 9.31 7.5 9.31Z" fill="black" fill-opacity="0.85"/>
</svg>
