<svg width="14" height="14" viewBox="0 0 14 14" fill="none" xmlns="http://www.w3.org/2000/svg">
<path d="M13.2164 12.3535L9.15859 8.2957C9.78828 7.48164 10.1289 6.48633 10.1289 5.43945C10.1289 4.18633 9.63984 3.01133 8.75547 2.12539C7.87109 1.23945 6.69297 0.751953 5.44141 0.751953C4.18984 0.751953 3.01172 1.24102 2.12734 2.12539C1.24141 3.00977 0.753906 4.18633 0.753906 5.43945C0.753906 6.69102 1.24297 7.86914 2.12734 8.75352C3.01172 9.63945 4.18828 10.127 5.44141 10.127C6.48828 10.127 7.48203 9.78633 8.29609 9.1582L12.3539 13.2145C12.3658 13.2264 12.3799 13.2358 12.3955 13.2422C12.411 13.2487 12.4277 13.252 12.4445 13.252C12.4614 13.252 12.478 13.2487 12.4936 13.2422C12.5091 13.2358 12.5233 13.2264 12.5352 13.2145L13.2164 12.5348C13.2283 12.5229 13.2378 12.5087 13.2442 12.4932C13.2506 12.4776 13.254 12.461 13.254 12.4441C13.254 12.4273 13.2506 12.4106 13.2442 12.3951C13.2378 12.3795 13.2283 12.3654 13.2164 12.3535ZM7.91641 7.91445C7.25391 8.57539 6.37578 8.93945 5.44141 8.93945C4.50703 8.93945 3.62891 8.57539 2.96641 7.91445C2.30547 7.25195 1.94141 6.37383 1.94141 5.43945C1.94141 4.50508 2.30547 3.62539 2.96641 2.96445C3.62891 2.30352 4.50703 1.93945 5.44141 1.93945C6.37578 1.93945 7.25547 2.30195 7.91641 2.96445C8.57734 3.62695 8.94141 4.50508 8.94141 5.43945C8.94141 6.37383 8.57734 7.25352 7.91641 7.91445Z" fill="black" fill-opacity="0.45"/>
</svg>
