<svg width="14" height="14" viewBox="0 0 14 14" fill="none" xmlns="http://www.w3.org/2000/svg">
<path fill-rule="evenodd" clip-rule="evenodd" d="M5.6875 0.8125C5.41136 0.8125 5.1875 1.03636 5.1875 1.3125C5.1875 1.58864 5.41136 1.8125 5.6875 1.8125H8.3125C8.58864 1.8125 8.8125 1.58864 8.8125 1.3125C8.8125 1.03636 8.58864 0.8125 8.3125 0.8125H5.6875ZM5.6875 7.375C5.41136 7.375 5.1875 7.59886 5.1875 7.875C5.1875 8.15114 5.41136 8.375 5.6875 8.375H8.3125C8.58864 8.375 8.8125 8.15114 8.8125 7.875C8.8125 7.59886 8.58864 7.375 8.3125 7.375H5.6875ZM5.1875 6.125C5.1875 5.84886 5.41136 5.625 5.6875 5.625H8.3125C8.58864 5.625 8.8125 5.84886 8.8125 6.125C8.8125 6.40114 8.58864 6.625 8.3125 6.625H5.6875C5.41136 6.625 5.1875 6.40114 5.1875 6.125ZM5.6875 12.1875C5.41136 12.1875 5.1875 12.4114 5.1875 12.6875C5.1875 12.9636 5.41136 13.1875 5.6875 13.1875H8.3125C8.58864 13.1875 8.8125 12.9636 8.8125 12.6875C8.8125 12.4114 8.58864 12.1875 8.3125 12.1875H5.6875ZM10 1.3125C10 1.03636 10.2239 0.8125 10.5 0.8125H11.8125C12.0611 0.8125 12.2996 0.911272 12.4754 1.08709C12.6512 1.2629 12.75 1.50136 12.75 1.75V3.06248C12.75 3.33862 12.5261 3.56248 12.25 3.56248C11.9739 3.56248 11.75 3.33862 11.75 3.06248V1.8125H10.5C10.2239 1.8125 10 1.58864 10 1.3125ZM10.5 7.375C10.2239 7.375 10 7.59886 10 7.875C10 8.15114 10.2239 8.375 10.5 8.375H11.75V9.62498C11.75 9.90112 11.9739 10.125 12.25 10.125C12.5261 10.125 12.75 9.90112 12.75 9.62498V8.3125C12.75 8.06386 12.6512 7.8254 12.4754 7.64959C12.2996 7.47377 12.0611 7.375 11.8125 7.375H10.5ZM12.25 3.875C12.5261 3.875 12.75 4.09886 12.75 4.375V5.68752C12.75 5.93616 12.6512 6.17462 12.4754 6.35043C12.2996 6.52625 12.0611 6.62502 11.8125 6.62502H10.5C10.2239 6.62502 10 6.40116 10 6.12502C10 5.84888 10.2239 5.62502 10.5 5.62502H11.75V4.375C11.75 4.09886 11.9739 3.875 12.25 3.875ZM12.75 10.9375C12.75 10.6614 12.5261 10.4375 12.25 10.4375C11.9739 10.4375 11.75 10.6614 11.75 10.9375V12.1875H10.5C10.2239 12.1875 10 12.4114 10 12.6875C10 12.9637 10.2239 13.1875 10.5 13.1875H11.8125C12.0611 13.1875 12.2996 13.0887 12.4754 12.9129C12.6512 12.7371 12.75 12.4987 12.75 12.25V10.9375ZM1.75 3.875C2.02614 3.875 2.25 4.09886 2.25 4.375V5.62502H3.5C3.77614 5.62502 4 5.84888 4 6.12502C4 6.40116 3.77614 6.62502 3.5 6.62502H2.1875C1.93886 6.62502 1.7004 6.52625 1.52459 6.35043C1.34877 6.17462 1.25 5.93616 1.25 5.68752V4.375C1.25 4.09886 1.47386 3.875 1.75 3.875ZM2.25 10.9375C2.25 10.6614 2.02614 10.4375 1.75 10.4375C1.47386 10.4375 1.25 10.6614 1.25 10.9375V12.25C1.25 12.4987 1.34877 12.7371 1.52459 12.9129C1.7004 13.0887 1.93886 13.1875 2.1875 13.1875H3.5C3.77614 13.1875 4 12.9637 4 12.6875C4 12.4114 3.77614 12.1875 3.5 12.1875H2.25V10.9375ZM1.52459 1.08709C1.7004 0.911272 1.93886 0.8125 2.1875 0.8125H3.5C3.77614 0.8125 4 1.03636 4 1.3125C4 1.58864 3.77614 1.8125 3.5 1.8125H2.25V3.06248C2.25 3.33862 2.02614 3.56248 1.75 3.56248C1.47386 3.56248 1.25 3.33862 1.25 3.06248V1.75C1.25 1.50136 1.34877 1.2629 1.52459 1.08709ZM2.1875 7.375C1.93886 7.375 1.7004 7.47377 1.52459 7.64959C1.34877 7.8254 1.25 8.06386 1.25 8.3125V9.62498C1.25 9.90112 1.47386 10.125 1.75 10.125C2.02614 10.125 2.25 9.90112 2.25 9.62498V8.375H3.5C3.77614 8.375 4 8.15114 4 7.875C4 7.59886 3.77614 7.375 3.5 7.375H2.1875Z" fill="black" fill-opacity="0.85"/>
</svg>
