<svg width="14" height="14" viewBox="0 0 14 14" fill="none" xmlns="http://www.w3.org/2000/svg">
<g clip-path="url(#clip0_5305_59983)">
<rect width="14" height="14" fill="white" fill-opacity="0.01"/>
<path d="M10.5 7L10.5 5.44207C10.5 5.36116 10.4089 5.31375 10.3427 5.36014L8.11703 6.91808C8.06016 6.95789 8.06016 7.04211 8.11703 7.08192L10.3427 8.63986C10.4089 8.68625 10.5 8.63884 10.5 8.55793L10.5 7Z" fill="black"/>
<path d="M3.5 7L3.5 8.55793C3.5 8.63884 3.59107 8.68625 3.65735 8.63986L5.88297 7.08192C5.93984 7.04211 5.93984 6.95789 5.88297 6.91808L3.65735 5.36014C3.59107 5.31375 3.5 5.36116 3.5 5.44207V7Z" fill="black"/>
<path d="M4 7H1" stroke="black" stroke-linecap="round" stroke-linejoin="round"/>
<path d="M10 7L13 7" stroke="black" stroke-linecap="round" stroke-linejoin="round"/>
<path d="M5.66667 4V1H1V13H5.66667V10" stroke="black" stroke-linejoin="round"/>
<path d="M8.33333 10L8.33333 13L13 13L13 1L8.33333 1L8.33333 4" stroke="black" stroke-linejoin="round"/>
</g>
<defs>
<clipPath id="clip0_5305_59983">
<rect width="14" height="14" fill="white"/>
</clipPath>
</defs>
</svg>
