<svg width="14" height="14" viewBox="0 0 14 14" fill="none" xmlns="http://www.w3.org/2000/svg">
<path fill-rule="evenodd" clip-rule="evenodd" d="M5.6875 1.25C5.3394 1.25 5.00556 1.38828 4.75942 1.63442C4.51328 1.88056 4.375 2.2144 4.375 2.5625V3L3.06399 3L3.0625 3L3.06101 3L2.1875 3C1.94588 3 1.75 3.19588 1.75 3.4375C1.75 3.67913 1.94588 3.875 2.1875 3.875L2.625 3.875V11.75C2.625 11.9821 2.71719 12.2046 2.88128 12.3687C3.04538 12.5328 3.26794 12.625 3.5 12.625H10.5C10.7321 12.625 10.9546 12.5328 11.1187 12.3687C11.2828 12.2046 11.375 11.9821 11.375 11.75V3.875H11.8125C12.0541 3.875 12.25 3.67912 12.25 3.4375C12.25 3.19588 12.0541 3 11.8125 3L10.938 3L10.9375 3L10.937 3L9.625 3V2.5625C9.625 2.2144 9.48672 1.88056 9.24058 1.63442C8.99444 1.38828 8.6606 1.25 8.3125 1.25H5.6875ZM8.75 3V2.5625C8.75 2.44647 8.70391 2.33519 8.62186 2.25314C8.53981 2.17109 8.42853 2.125 8.3125 2.125H5.6875C5.57147 2.125 5.46019 2.17109 5.37814 2.25314C5.29609 2.33519 5.25 2.44647 5.25 2.5625V3L8.75 3ZM3.5 11.75V3.875L10.5 3.875V11.75H3.5ZM5.6875 5.625C5.92912 5.625 6.125 5.82088 6.125 6.0625V9.5625C6.125 9.80412 5.92912 10 5.6875 10C5.44588 10 5.25 9.80412 5.25 9.5625V6.0625C5.25 5.82088 5.44588 5.625 5.6875 5.625ZM8.75 9.5625V6.0625C8.75 5.82088 8.55412 5.625 8.3125 5.625C8.07088 5.625 7.875 5.82088 7.875 6.0625V9.5625C7.875 9.80412 8.07088 10 8.3125 10C8.55412 10 8.75 9.80412 8.75 9.5625Z" fill="#FF4D4F"/>
</svg>
