<svg width="12" height="12" viewBox="0 0 12 12" fill="none" xmlns="http://www.w3.org/2000/svg">
<path d="M7.2852 5.00782C6.8986 4.67166 6.85861 4.25424 7.02212 3.91099C7.19167 3.55505 7.60568 3.23913 8.21751 3.23913H10.1304C10.8868 3.23913 11.5 2.62596 11.5 1.86957C11.5 1.11318 10.8868 0.5 10.1304 0.5H8.21751C6.35042 0.5 4.90424 1.48719 4.27155 2.8154C3.63282 4.15631 3.84853 5.80411 5.2148 6.99218C5.6014 7.32834 5.64139 7.74576 5.47788 8.08901C5.30833 8.44495 4.89432 8.76087 4.28249 8.76087H1.86957C1.11318 8.76087 0.5 9.37404 0.5 10.1304C0.5 10.8868 1.11318 11.5 1.86957 11.5H4.28249C6.14958 11.5 7.59576 10.5128 8.22845 9.1846C8.86718 7.84369 8.65147 6.19589 7.2852 5.00782Z"/>
</svg>
